# xmcd
#
# Track frame offsets: 
#        150
#        18504
#        34087
#        48279
#        60924
#        75863
#        93959
#        112011
#        128423
#        140220
#        158404
#        173777
#        190365
#        207889
#        227527
#
# Disc length: 3263 seconds
#
# Revision: 0
# Processed by: cddbd v1.5.2PL0 Copyright (c) Steve Scherf et al.
# Submitted via: ExactAudioCopy v1.0b1
#
DISCID=b30cbd0f
DTITLE=Various Artist - CDX - Volume 519 - March 14, 2011
DYEAR=2011
DGENRE=Country
TTITLE0=Tim McGraw and Gwyneth Paltrow - Me And Tennessee
TTITLE1=The JaneDear Girls - Shotgun Girl
TTITLE2=Toby Keith - Somewhere Else
TTITLE3=George Jones - I Ain't Ever Slowing Down
TTITLE4=Donny and Marie - The Good Life
TTITLE5=Richie McDonald - Footprints On The Moon
TTITLE6=Wayne Warner - Unbroken
TTITLE7=Heartland - I Loved Her First
TTITLE8=Ronnie Reno and Vince Hatfield - I Ain't Quit Falling Yet
TTITLE9=Greg Hanna - Makin' Love Real
TTITLE10=Mark Cooke - I Love It
TTITLE11=Scott Lindsey - Miss Lead Me On
TTITLE12=Timothy Craig - State Line (The Spring Break Song)
TTITLE13=J.D. Bauman And The Boot Band - Trains I Missed
TTITLE14=Kristi Kalyn - We're In This Love Together
EXTD=
EXTT0=
EXTT1=
EXTT2=
EXTT3=
EXTT4=
EXTT5=
EXTT6=
EXTT7=
EXTT8=
EXTT9=
EXTT10=
EXTT11=
EXTT12=
EXTT13=
EXTT14=
PLAYORDER=
